# xmcd
#
# Track frame offsets:
#	150
#	17720
#	40613
#	57009
#	77872
#	99711
#	120117
#	136790
#	157227
#	176508
#	197511
#	211917
#	229981
#	247815
#
# Disc length: 3551 seconds
#
# Revision: 7
# Processed by: cddbd v1.5.2PL0 Copyright (c) Steve Scherf et al.
# Submitted via: EasyCDDAExtractor 12.0.0.1
#
DISCID=ab0ddd0e
DTITLE=JAMES INGRAM - Forever More (Love Songs, Hits and Duets)
DYEAR=1999
DGENRE=R&B
TTITLE0=Forever More (I'll Be The One) [Featuring John Tesh]
TTITLE1=I Believe I Can Fly
TTITLE2=Baby Come To Me [Featuring Patti Austin]
TTITLE3=I Believe In Those Love Songs
TTITLE4=Everything Must Change
TTITLE5=Yah Mo Be There [Featuring Michael Mcdonald]
TTITLE6=No Need To Say Goodbye
TTITLE7=Just Once
TTITLE8=Wish You Were Here [Featuring Nancy Wilson]
TTITLE9=One Hundred Ways
TTITLE10=My Funny Valentine
TTITLE11=Somewhere Out There [Featuring Linda Ronstadt]
TTITLE12=I Don't Have The Heart
TTITLE13=The Day I Fall In Love [Featuring Dolly Parton]
EXTD=\n YEAR: 1999
EXTT0=
EXTT1=
EXTT2=
EXTT3=
EXTT4=
EXTT5=
EXTT6=
EXTT7=
EXTT8=
EXTT9=
EXTT10=
EXTT11=
EXTT12=
EXTT13=
PLAYORDER=
